<svg xmlns="http://www.w3.org/2000/svg" width="600" height="563" viewBox="0 0 355.23 333.39">
    <defs>
        <style>
        .cls-1{isolation:isolate;}
        .cls-2{fill:#d6953e;}
        .cls-3{fill:#b57b35;}
        .cls-4{fill:#285c77;}
        .cls-5{fill:#868689;}
        .cls-6{fill:#6d6d6d;}
        .cls-7{fill:#c5c4d7;}
        .cls-8{fill:#a5a5ad;}
        .cls-9{fill:#172f47;}
        .cls-10{fill:#202739;}
        .cls-11{fill:#a7a6bb;}
        .cls-12{fill:#fefefe;}
        .cls-13{fill:#fd7c3a;}
        .cls-14{fill:#004db9;}
        .cls-15{fill:#d3d3d3;}
        .cls-15,
        .cls-26{mix-blend-mode:multiply;}
        .cls-16{fill:#adadad;}
        .cls-17{fill:#e4e4ef;}
        .cls-18{fill:#897762;}
        .cls-19{fill:#331d0b;}
        .cls-20{fill:#635140;}
        .cls-21{fill:#edac7c;}
        .cls-22{fill:#f7a588;}
        .cls-23{fill:#cf9166;}
        .cls-24{fill:#b57223;}
        .cls-25{fill:#39748e;}
        .cls-26{fill:#77bfd8;}
      </style>
    </defs>
    <title>chair</title>
    <g class="cls-1">
        <g id="Layer_2" data-name="Layer 2">
            <g id="OBJECTS">
                <polygon class="cls-2" points="42.73 216.22 78.23 132.65 78.23 116.15 35.72 216.22 42.73 216.22" />
                <polygon class="cls-3" points="73.13 131.64 78.23 132.65 78.23 116.15 72.11 130.54 71.05 133.04 73.13 131.64" />
                <path class="cls-4" d="M234.87,32.07l-14.1,13.09,4.85,7.41a5.21,5.21,0,0,1,.33,5.06l0,.06a5.24,5.24,0,0,1-4.05,3.05l-8.79,1.16-.71,19.22,8.67,1.81a5.25,5.25,0,0,1,3.82,3.34l0,.06a5.23,5.23,0,0,1-.71,5l-5.39,7,6.54,7.05,6.55,7,7.41-4.85a5.21,5.21,0,0,1,5.06-.34l.05,0a5.23,5.23,0,0,1,3.06,4.05l1.15,8.78,19.23.72,1.8-8.67a5.24,5.24,0,0,1,3.35-3.82l.06,0a5.23,5.23,0,0,1,5,.71l7,5.39,14.1-13.09L294.34,94A5.24,5.24,0,0,1,294,88.9l0-.05a5.23,5.23,0,0,1,4-3.06l8.78-1.16.72-19.22-8.68-1.81a5.21,5.21,0,0,1-3.81-3.34l0-.06a5.22,5.22,0,0,1,.7-5l5.4-7-6.55-7-6.54-7.05-7.41,4.86a5.24,5.24,0,0,1-5.06.33l-.06,0a5.22,5.22,0,0,1-3.05-4.05l-1.16-8.78-19.22-.72-1.81,8.67A5.22,5.22,0,0,1,247,38.15l-.05,0a5.25,5.25,0,0,1-5-.71ZM280.8,53.94a28.4,28.4,0,1,1-40.14-1.49A28.4,28.4,0,0,1,280.8,53.94Z" />
                <path class="cls-2" d="M322.56,54.42l-6.23,5.79,2.15,3.27a2.29,2.29,0,0,1,.14,2.24v0a2.3,2.3,0,0,1-1.79,1.35l-3.88.51-.31,8.49,3.83.8a2.29,2.29,0,0,1,1.68,1.48v0a2.3,2.3,0,0,1-.31,2.22l-2.38,3.11,2.89,3.11L321.24,90l3.27-2.15a2.32,2.32,0,0,1,2.24-.15l0,0a2.28,2.28,0,0,1,1.35,1.79l.51,3.88,8.5.31.79-3.83a2.34,2.34,0,0,1,1.48-1.69h0a2.3,2.3,0,0,1,2.22.31l3.1,2.38L351,85l-2.14-3.27a2.32,2.32,0,0,1-.15-2.24v0a2.34,2.34,0,0,1,1.79-1.35l3.88-.51.32-8.49-3.83-.8a2.3,2.3,0,0,1-1.69-1.48v0a2.32,2.32,0,0,1,.31-2.22l2.39-3.1L349,58.41l-2.89-3.11-3.27,2.14a2.32,2.32,0,0,1-2.24.15h0a2.29,2.29,0,0,1-1.35-1.79l-.51-3.88-8.49-.32-.8,3.83a2.3,2.3,0,0,1-1.48,1.69h0a2.32,2.32,0,0,1-2.22-.31Zm20.29,9.67a12.55,12.55,0,1,1-17.73-.66A12.54,12.54,0,0,1,342.85,64.09Z" />
                <path class="cls-2" d="M174.08,4.16l-9.16,8.51,3.16,4.81a3.41,3.41,0,0,1,.21,3.29v0a3.39,3.39,0,0,1-2.64,2l-5.71.76L159.47,36l5.64,1.17a3.37,3.37,0,0,1,2.47,2.18l0,0a3.42,3.42,0,0,1-.46,3.27l-3.51,4.56,4.26,4.59,4.25,4.58L177,53.26a3.39,3.39,0,0,1,3.29-.21h0a3.39,3.39,0,0,1,2,2.64l.76,5.7,12.49.47,1.17-5.64a3.4,3.4,0,0,1,2.18-2.48h0a3.4,3.4,0,0,1,3.27.46l4.56,3.5,9.17-8.5-3.16-4.82a3.38,3.38,0,0,1-.21-3.29v0a3.42,3.42,0,0,1,2.64-2l5.7-.75.47-12.49-5.64-1.17a3.42,3.42,0,0,1-2.48-2.18v0a3.38,3.38,0,0,1,.46-3.26l3.5-4.57L212.92,10l-4.25-4.58-4.82,3.16a3.41,3.41,0,0,1-3.29.21h0a3.42,3.42,0,0,1-2-2.64L197.79.46,185.3,0l-1.17,5.64A3.38,3.38,0,0,1,182,8.11l0,0a3.4,3.4,0,0,1-3.26-.46Zm29.85,14.22a18.45,18.45,0,1,1-26.08-1A18.46,18.46,0,0,1,203.93,18.38Z" />
                <path id="_Path_" data-name="&lt;Path&gt;" class="cls-5" d="M16.88,224.82H338.35a4.33,4.33,0,0,0,4.33-4.33h0a4.33,4.33,0,0,0-4.33-4.33H16.88a4.33,4.33,0,0,0-4.33,4.33h0A4.33,4.33,0,0,0,16.88,224.82Z" />
                <path class="cls-6" d="M12.91,222.21a4.32,4.32,0,0,0,4,2.61H338.35a4.32,4.32,0,0,0,4-2.61Z" />
                <rect id="_Rectangle_" data-name="&lt;Rectangle&gt;" class="cls-7" x="111.63" y="211.62" width="119.29" height="4.54" transform="translate(342.55 427.78) rotate(180)" />
                <rect id="_Rectangle_2" data-name="&lt;Rectangle&gt;" class="cls-8" x="123.74" y="211.62" width="119.29" height="4.54" transform="translate(366.77 427.78) rotate(180)" />
                <rect id="_Rectangle_3" data-name="&lt;Rectangle&gt;" class="cls-9" x="82.25" y="64.46" width="191.61" height="119.84" rx="7" ry="7" />
                <rect class="cls-10" x="176.74" y="82.4" width="2.58" height="83.79" />
                <path class="cls-11" d="M273.86,77V70.91a6.46,6.46,0,0,0-6.46-6.45H88.71a6.46,6.46,0,0,0-6.46,6.45V77Z" />
                <rect class="cls-12" x="193.23" y="125.86" width="26.33" height="4.54" />
                <rect class="cls-13" x="193.23" y="134.66" width="32.77" height="4.54" />
                <rect class="cls-12" x="229.36" y="134.66" width="16.24" height="4.54" />
                <rect class="cls-12" x="193.23" y="143.45" width="12.88" height="4.54" />
                <rect class="cls-12" x="210.59" y="143.45" width="48.45" height="4.54" />
                <rect class="cls-14" x="225.72" y="125.86" width="15.12" height="4.54" />
                <rect class="cls-12" x="193.23" y="84.69" width="26.33" height="4.54" />
                <rect class="cls-13" x="193.23" y="93.48" width="32.77" height="4.54" />
                <rect class="cls-12" x="229.36" y="93.48" width="16.24" height="4.54" />
                <rect class="cls-12" x="193.23" y="102.27" width="12.88" height="4.54" />
                <rect class="cls-12" x="210.59" y="102.27" width="48.45" height="4.54" />
                <rect class="cls-14" x="225.72" y="84.69" width="15.12" height="4.54" />
                <rect class="cls-12" x="103.66" y="125.86" width="26.33" height="4.54" />
                <rect class="cls-13" x="103.66" y="134.66" width="32.77" height="4.54" />
                <rect class="cls-12" x="139.79" y="134.66" width="16.24" height="4.54" />
                <rect class="cls-12" x="103.66" y="143.45" width="12.88" height="4.54" />
                <rect class="cls-12" x="121.03" y="143.45" width="48.45" height="4.54" />
                <rect class="cls-14" x="136.15" y="125.86" width="15.12" height="4.54" />
                <rect class="cls-12" x="103.66" y="84.69" width="26.33" height="4.54" />
                <rect class="cls-13" x="103.66" y="93.48" width="32.77" height="4.54" />
                <rect class="cls-12" x="139.79" y="93.48" width="16.24" height="4.54" />
                <rect class="cls-12" x="103.66" y="102.27" width="12.88" height="4.54" />
                <rect class="cls-12" x="121.03" y="102.27" width="48.45" height="4.54" />
                <rect class="cls-14" x="136.15" y="84.69" width="15.12" height="4.54" />
                <g id="_Group_" data-name="&lt;Group&gt;">
                    <path class="cls-5" d="M264.46,188.32H91.65A13.43,13.43,0,0,1,78.23,174.9V73.85A13.43,13.43,0,0,1,91.65,60.43H264.46a13.43,13.43,0,0,1,13.42,13.42V174.9A13.43,13.43,0,0,1,264.46,188.32ZM91.65,68.48a5.37,5.37,0,0,0-5.37,5.37V157a5.37,5.37,0,0,0,5.37,5.37H264.46a5.37,5.37,0,0,0,5.37-5.37V73.85a5.37,5.37,0,0,0-5.37-5.37Z" />
                </g>
                <path class="cls-15" d="M260.32,166l.39-1.71a13.72,13.72,0,0,0-4-13.08h0a13.67,13.67,0,0,0-13.34-3l-.83.25,10.29,9.55-1.56,6.86-6.72,2.07-10.3-9.55-.19.85a13.68,13.68,0,0,0,4,13.08h0a13.69,13.69,0,0,0,13.34,3l1.68-.52,15.11,14a13.42,13.42,0,0,0,8.25-6.86Z" />
                <path class="cls-6" d="M264.46,66.51H91.65a5.37,5.37,0,0,0-5.37,5.37v2a5.37,5.37,0,0,1,5.37-5.37H264.46a5.37,5.37,0,0,1,5.37,5.37v-2A5.37,5.37,0,0,0,264.46,66.51Z" />
                <path class="cls-6" d="M264.46,186.35H91.65a13.43,13.43,0,0,1-13.42-13.42v2a13.43,13.43,0,0,0,13.42,13.42H264.46a13.43,13.43,0,0,0,13.42-13.42v-2A13.43,13.43,0,0,1,264.46,186.35Z" />
                <path class="cls-12" d="M261.12,72.91a2,2,0,1,1-2-2A2,2,0,0,1,261.12,72.91Z" />
                <path class="cls-10" d="M254.1,72.91a2,2,0,1,1-2-2A2,2,0,0,1,254.1,72.91Z" />
                <path class="cls-13" d="M247.07,72.91a2,2,0,1,1-2-2A2,2,0,0,1,247.07,72.91Z" />
                <polygon class="cls-2" points="72.42 216.22 115.73 114.27 109.79 111.75 65.41 216.22 72.42 216.22" />
                <path class="cls-2" d="M72.71,133.23h0A3.23,3.23,0,0,1,75.94,130H103.6v6.45H75.94A3.23,3.23,0,0,1,72.71,133.23Z" />
                <rect class="cls-2" x="76.15" y="140.86" width="6.45" height="30.77" transform="translate(235.62 76.86) rotate(90)" />
                <rect class="cls-2" x="66.59" y="163.52" width="6.45" height="31.46" transform="translate(249.06 109.43) rotate(90)" />
                <rect class="cls-2" x="56.79" y="186.99" width="6.45" height="30.54" transform="translate(262.27 142.24) rotate(90)" />
                <path class="cls-16" d="M298.2,207.91l-34.54-49,.74-1.59a13.69,13.69,0,0,0-13.65-19.38l-.86.08L258,149.45l-3,6.38-7,.63L239.93,145l-.37.79a13.69,13.69,0,0,0,13.65,19.38L255,165l34.54,49a5.32,5.32,0,0,0,8.7-6.13Z" />
                <path class="cls-5" d="M293,209.81h0a2.62,2.62,0,0,1-3.65-.63l-28.93-41.09a2.62,2.62,0,0,1,.63-3.65h0a2.62,2.62,0,0,1,3.65.64l28.93,41.08A2.61,2.61,0,0,1,293,209.81Z" />
                <path class="cls-17" d="M349.61,333.39H5.62A5.62,5.62,0,0,1,0,327.77H0a5.62,5.62,0,0,1,5.62-5.62h344a5.62,5.62,0,0,1,5.62,5.62h0A5.62,5.62,0,0,1,349.61,333.39Z" />
                <path class="cls-7" d="M243.85,333.39H111.38a5.62,5.62,0,0,1-5.62-5.62h0a5.62,5.62,0,0,1,5.62-5.62H243.85a5.62,5.62,0,0,1,5.62,5.62h0A5.62,5.62,0,0,1,243.85,333.39Z" />
                <path class="cls-18" d="M176.74,231.28h31.72a14.89,14.89,0,0,1,1.61.09c10.79,1.12,18,11.77,15.44,22.32l-13,60.42H193.88l9-57.31H176.74Z" />
                <path class="cls-19" d="M193.88,314.11h15.57S226,315.68,226,326.65H193.88Z" />
                <path class="cls-18" d="M178.55,231.28H146.83a14.89,14.89,0,0,0-1.61.09c-10.79,1.12-18,11.77-15.44,22.32l13,60.42h18.65l-8.95-57.31h26.09Z" />
                <path class="cls-20" d="M204.83,314.11c.06-.21.13-.41.19-.62,2.16-7.11,4.19-24.13,6.21-31.28,2.16-7.66,4.18-15.37,5.67-23.18.3-1.61.56-3.22.84-4.83.11-.72.18-1.2.22-1.44.1-.84.2-1.68.28-2.51,0-.21,0-.41,0-.61H176.74v7.16h26.09l-9,57.31Z" />
                <path class="cls-20" d="M178.55,249.64H138.64c.19.81.39,1.63.59,2.44,1.76,6.9,4,13.66,6.27,20.41,2.19,6.58,4.49,13.16,6.18,19.89,1,3.95,1.75,17.8,2.74,21.73h7l-8.95-57.31h26.09Z" />
                <g id="_Group_2" data-name="&lt;Group&gt;">
                    <g id="_Group_3" data-name="&lt;Group&gt;">
                        <g id="_Group_4" data-name="&lt;Group&gt;">
                            <g id="_Group_5" data-name="&lt;Group&gt;">
                                <path id="_Path_2" data-name="&lt;Path&gt;" class="cls-21" d="M159.31,125.5s-4-6.26-8.52-2.84.28,15.8,8.55,13.81Z" />
                                <path id="_Path_3" data-name="&lt;Path&gt;" class="cls-22" d="M159.32,129.66l0,5.64c-7,.57-10.06-9.45-6.74-10.47C155.27,124,158.14,127.69,159.32,129.66Z" />
                                <path id="_Path_4" data-name="&lt;Path&gt;" class="cls-23" d="M151.29,126.71a.64.64,0,0,0,0-.12l.14-.32a2.33,2.33,0,0,1,.72-.91,1.4,1.4,0,0,1,.3-.15l.17,0h0s0,0,0,0h.05l.11,0a.75.75,0,0,1,.2,0h.2l.2,0,.21,0a4.72,4.72,0,0,1,1.69.74c.27.18.53.38.79.59s.5.43.73.65c.47.44.89.87,1.25,1.25l1.2,1.29s0-.17-.17-.46a8.47,8.47,0,0,0-.59-1.15,8,8,0,0,0-.47-.73c-.18-.25-.38-.52-.6-.77a8.07,8.07,0,0,0-1.61-1.45,5.1,5.1,0,0,0-1-.53,4,4,0,0,0-1.12-.26h-.28l-.28,0a1.51,1.51,0,0,0-.28,0l-.24.06-.11,0-.07,0-.06,0-.24.12a1.9,1.9,0,0,0-.37.31,1.87,1.87,0,0,0-.41.69,2.43,2.43,0,0,0-.12.57,2.47,2.47,0,0,0,0,.37Z" />
                            </g>
                            <g id="_Group_6" data-name="&lt;Group&gt;">
                                <path id="_Path_5" data-name="&lt;Path&gt;" class="cls-21" d="M201.43,129.14s5-5.49,8.88-1.34-3,15.52-10.79,12.14Z" />
                                <path id="_Path_6" data-name="&lt;Path&gt;" class="cls-22" d="M200.71,133.23l-1,5.56c6.83,1.77,11.52-7.58,8.43-9.16C205.67,128.35,202.21,131.49,200.71,133.23Z" />
                                <path id="_Path_7" data-name="&lt;Path&gt;" class="cls-23" d="M209.13,131.71l0-.13a3,3,0,0,0-.08-.34,2.29,2.29,0,0,0-.55-1,1.46,1.46,0,0,0-.27-.2l-.15-.07-.05,0h0l-.11,0-.19-.06-.2,0a1.2,1.2,0,0,0-.2,0h-.21a4.66,4.66,0,0,0-1.79.44c-.3.13-.59.29-.88.45l-.84.51c-.53.35-1,.71-1.44,1l-1.4,1.06a4.71,4.71,0,0,1,.25-.42,8.65,8.65,0,0,1,.77-1c.18-.2.37-.42.59-.63s.46-.44.72-.66a8.21,8.21,0,0,1,1.84-1.15A5.55,5.55,0,0,1,206,129a3.63,3.63,0,0,1,1.14-.06l.28.05a1.31,1.31,0,0,1,.27.06l.27.1a1.23,1.23,0,0,1,.23.11l.1,0,.06,0,.06,0c.08,0,.14.11.21.16a2.73,2.73,0,0,1,.32.37,1.93,1.93,0,0,1,.28.75,2.35,2.35,0,0,1,0,.58c0,.16,0,.28-.05.37Z" />
                            </g>
                            <path id="_Path_8" data-name="&lt;Path&gt;" class="cls-21" d="M172.81,145.47l11.44,0s.48,17.92.52,17.92-.84,3.57-5.91,3.66-6.34-3.64-6.34-3.64S172.81,145.47,172.81,145.47Z" />
                            <path id="_Path_9" data-name="&lt;Path&gt;" class="cls-23" d="M172.81,145.47l11.44,0s.48,17.92.52,17.92-.84,3.57-5.91,3.66-6.34-3.64-6.34-3.64S172.81,145.47,172.81,145.47Z" />
                            <path id="_Path_10" data-name="&lt;Path&gt;" class="cls-23" d="M173.49,148.28l11.41,1s-.06,2.29-.09,4.24c0,.28-3.33.5-3.69.52a20.37,20.37,0,0,1-8.2-1.32C173.18,150.73,173.49,148.28,173.49,148.28Z" />
                            <path id="_Path_11" data-name="&lt;Path&gt;" class="cls-23" d="M156.92,120.2c1-7.89,5-15.08,13.1-17.48a33.08,33.08,0,0,1,12.77-.82c4.2.43,8.66,1.09,12.49,3,6.84,3.34,5.5,6.92,5.59,14.22,0,.71,4.47,4.59,4.43,5.3-.08,1.64-.09,3.26-.3,4.89a37.83,37.83,0,0,1-2.86,10.7,24.16,24.16,0,0,1-8.38,10.41,24.35,24.35,0,0,1-19.33,3.24A25.84,25.84,0,0,1,166.5,150a22.84,22.84,0,0,1-8.36-11.27,35.13,35.13,0,0,1-1.82-11.81,38.76,38.76,0,0,1,.56-6.54A.85.85,0,0,0,156.92,120.2Z" />
                            <g id="_Group_7" data-name="&lt;Group&gt;">
                                <path id="_Path_12" data-name="&lt;Path&gt;" class="cls-23" d="M156.49,120.42a58.05,58.05,0,0,1,.24-7C156.41,117.4,156.49,120.42,156.49,120.42Z" />
                            </g>
                            <path id="_Path_13" data-name="&lt;Path&gt;" class="cls-24" d="M161,104.22c7.18-10.77,45.53-14,48,22.25,1.77,26.44-28.11,29.73-42.48,23.52C142,139.43,153.84,115,161,104.22Z" />
                        </g>
                        <path id="_Path_14" data-name="&lt;Path&gt;" class="cls-24" d="M156.13,131.33s-3.4-1-5.34-8.67c-1.32-5.22.2-16.2,6.62-21.48,3.77-3.1,4.82-1.66,4.82-1.66s1-3.73,8.12-6.83c23.4-10.14,29.36.9,32.69,10,4.54,12.42,2.26,21.69-22.2,13.68-9.88-3.23-16.16-4.84-16.16-4.84a20.11,20.11,0,0,1-1.9,7.74c-2,4.54-6.72,9.47-6.72,9.47" />
                    </g>
                </g>
                <path class="cls-14" d="M222.49,201.17l-13.65-31.08c-2-4.45-7.2-7.43-13.09-7.43h-34.4c-5.89,0-11.14,3-13.1,7.43L134.6,201.17c-3.17,7.23,3.52,14.81,13.09,14.81h61.72C219,216,225.67,208.4,222.49,201.17Z" />
                <rect class="cls-25" x="144.91" y="168.15" width="67.99" height="80.37" rx="14.08" ry="14.08" />
                <rect class="cls-4" x="148.23" y="168.15" width="61.36" height="75.44" rx="14.08" ry="14.08" />
                <rect class="cls-25" x="147.22" y="119.08" width="61.36" height="39.85" rx="14.08" ry="14.08" />
                <path class="cls-4" d="M193.4,155.54h-31a11.41,11.41,0,0,1-11.36-11.44V131.86a11.4,11.4,0,0,1,11.36-11.44h31a11.4,11.4,0,0,1,11.36,11.44V144.1A11.41,11.41,0,0,1,193.4,155.54Z" />
                <ellipse class="cls-4" cx="177.57" cy="259.15" rx="39.81" ry="9.35" />
                <path class="cls-25" d="M147.19,253.11a297.31,297.31,0,0,0,30.38,1.33A297.53,297.53,0,0,0,208,253.11c-7.31-2-18.2-3.31-30.39-3.31S154.49,251.09,147.19,253.11Z" />
                <path class="cls-26" d="M138.53,261c3.62,4.29,19.72,7.52,39,7.52s35.43-3.23,39-7.52Z" />
                <path class="cls-10" d="M183.42,315H171.73V219.37a5.84,5.84,0,0,1,5.84-5.85h0a5.85,5.85,0,0,1,5.85,5.85Z" />
                <path class="cls-10" d="M181.68,214.94h-8.22v-82a4.11,4.11,0,0,1,4.11-4.11h0a4.11,4.11,0,0,1,4.11,4.11Z" />
                <path class="cls-19" d="M161.41,314.11H145.84s-16.57,1.57-16.57,12.54h32.14Z" />
                <path class="cls-10" d="M177.14,267.12A103.08,103.08,0,0,1,143,263.25c-12.83-3.79-11.21-30.3-9.11-42.88,5-.21,8.89-1.33,8.89-2.7s-4.71-2.73-10.52-2.73-10.52,1.22-10.52,2.73c0,1.25,3.24,2.3,7.65,2.63-1.57,9.92-5.09,41.41,12.13,46.51a109.06,109.06,0,0,0,30.16,4.27c3.54,0,5.72-.19,6-.21Z" />
                <path class="cls-10" d="M179.8,267.12A103.09,103.09,0,0,0,214,263.25c12.83-3.79,11.2-30.3,9.11-42.88-5-.21-8.9-1.33-8.9-2.7s4.72-2.73,10.53-2.73,10.52,1.22,10.52,2.73c0,1.25-3.24,2.3-7.65,2.63,1.56,9.92,5.09,41.41-12.13,46.51a109.12,109.12,0,0,1-30.17,4.27c-3.53,0-5.71-.19-6-.21Z" />
                <path class="cls-10" d="M184.48,321.91a6.87,6.87,0,1,1-6.87-6.87A6.86,6.86,0,0,1,184.48,321.91Z" />
                <path class="cls-10" d="M184.48,216a6.87,6.87,0,1,1-6.87-6.87A6.86,6.86,0,0,1,184.48,216Z" />
                <path class="cls-10" d="M161.8,321.91a6.87,6.87,0,1,1-6.87-6.87A6.87,6.87,0,0,1,161.8,321.91Z" />
                <path class="cls-10" d="M207.09,321.91a6.87,6.87,0,1,1-6.87-6.87A6.87,6.87,0,0,1,207.09,321.91Z" />
                <rect class="cls-10" x="156.8" y="314.11" width="41.64" height="4.81" />
            </g>
        </g>
    </g>
</svg>