<svg xmlns="http://www.w3.org/2000/svg" viewBox="0 0 42.06 42.06"><defs><style>.cls-1{fill:#d6953e;}</style></defs><title>gear3</title><g id="Layer_2" data-name="Layer 2"><g id="OBJECTS"><path class="cls-1" d="M9.93,2.83,3.71,8.61l2.14,3.28A2.3,2.3,0,0,1,6,14.12v0A2.35,2.35,0,0,1,4.2,15.5L.32,16,0,24.5l3.83.8a2.32,2.32,0,0,1,1.69,1.48v0A2.32,2.32,0,0,1,5.21,29L2.83,32.13l2.89,3.11,2.89,3.11,3.28-2.14a2.3,2.3,0,0,1,2.23-.15h0a2.35,2.35,0,0,1,1.35,1.79L16,41.74l8.49.32.8-3.83a2.32,2.32,0,0,1,1.48-1.69h0a2.3,2.3,0,0,1,2.22.32l3.11,2.38,6.22-5.78-2.14-3.28a2.3,2.3,0,0,1-.15-2.23v0a2.35,2.35,0,0,1,1.79-1.35l3.88-.51.32-8.49-3.83-.8a2.32,2.32,0,0,1-1.69-1.48v0A2.3,2.3,0,0,1,36.85,13l2.38-3.11L36.34,6.82,33.45,3.71,30.17,5.85A2.3,2.3,0,0,1,27.94,6h0A2.35,2.35,0,0,1,26.56,4.2L26.05.32,17.56,0l-.8,3.83a2.32,2.32,0,0,1-1.48,1.69h0A2.32,2.32,0,0,1,13,5.21Zm20.29,9.66a12.55,12.55,0,1,1-17.73-.66A12.55,12.55,0,0,1,30.22,12.49Z"/></g></g></svg>