<svg xmlns="http://www.w3.org/2000/svg" viewBox="0 0 61.87 61.87">
    <defs>
        <style>.cls-1{fill:#d6953e;}</style>
    </defs>
    <title>gear1</title>
    <g id="Layer_2" data-name="Layer 2">
        <g id="OBJECTS">
            <path class="cls-1" d="M14.61,4.16,5.45,12.67l3.16,4.81a3.41,3.41,0,0,1,.21,3.29v0a3.39,3.39,0,0,1-2.64,2l-5.71.76L0,36l5.64,1.17a3.37,3.37,0,0,1,2.47,2.18l0,0a3.42,3.42,0,0,1-.46,3.27L4.16,47.25l4.26,4.59,4.25,4.58,4.81-3.16a3.39,3.39,0,0,1,3.29-.21h0a3.39,3.39,0,0,1,2,2.64l.76,5.7L36,61.87l1.17-5.64a3.4,3.4,0,0,1,2.18-2.48h0a3.4,3.4,0,0,1,3.27.46l4.56,3.5,9.17-8.5-3.16-4.82a3.38,3.38,0,0,1-.21-3.29v0a3.42,3.42,0,0,1,2.64-2l5.7-.75.47-12.49-5.64-1.17a3.42,3.42,0,0,1-2.48-2.18v0a3.38,3.38,0,0,1,.46-3.26l3.5-4.57L53.45,10,49.2,5.45,44.38,8.61a3.41,3.41,0,0,1-3.29.21h0a3.42,3.42,0,0,1-2-2.64L38.32.46,25.83,0,24.66,5.64a3.38,3.38,0,0,1-2.18,2.47l0,0a3.4,3.4,0,0,1-3.26-.46ZM44.46,18.38a18.45,18.45,0,1,1-26.08-1A18.46,18.46,0,0,1,44.46,18.38Z" />
        </g>
    </g>
</svg>