<svg xmlns="http://www.w3.org/2000/svg" viewBox="0 0 95.21 95.21">
    <defs>
        <style>.cls-1{fill:#285c77;}</style>
    </defs>
    <title>gear2</title>
    <g id="Layer_2" data-name="Layer 2">
        <g id="OBJECTS">
            <path class="cls-1" d="M22.49,6.41,8.39,19.5l4.85,7.41A5.19,5.19,0,0,1,13.57,32l0,.05A5.23,5.23,0,0,1,9.5,35.08L.71,36.23,0,55.46l8.67,1.8a5.26,5.26,0,0,1,3.82,3.35l0,.06a5.23,5.23,0,0,1-.71,5l-5.39,7,6.54,7,6.55,7L26.91,82A5.24,5.24,0,0,1,32,81.63l.05,0a5.23,5.23,0,0,1,3.06,4l1.15,8.78,19.23.72,1.8-8.67a5.24,5.24,0,0,1,3.35-3.82l.06,0a5.2,5.2,0,0,1,5,.71l7,5.39,14.1-13.09L82,68.3a5.24,5.24,0,0,1-.33-5.06l0-.06a5.22,5.22,0,0,1,4-3L94.49,59l.72-19.22-8.68-1.81a5.23,5.23,0,0,1-3.81-3.35l0-.05a5.22,5.22,0,0,1,.71-5l5.39-7-6.55-7-6.54-7L68.3,13.24a5.19,5.19,0,0,1-5.06.33l-.06,0a5.22,5.22,0,0,1-3-4.05L59,.71,39.75,0,37.94,8.67a5.24,5.24,0,0,1-3.35,3.82l-.05,0a5.25,5.25,0,0,1-5-.71ZM68.42,28.28a28.4,28.4,0,1,1-40.14-1.49A28.41,28.41,0,0,1,68.42,28.28Z" />
        </g>
    </g>
</svg>