<svg xmlns="http://www.w3.org/2000/svg" viewBox="0 0 143.7 243.06">
    <defs>
        <style>.cls-1{isolation:isolate;}.cls-2{fill:#c5c4d7;}.cls-3{fill:#897762;}.cls-4{fill:#331d0b;}.cls-5{fill:#635140;}.cls-6{fill:#edac7c;}.cls-7{fill:#f7a588;}.cls-8{fill:#cf9166;}.cls-9{fill:#b57223;}.cls-10{fill:#004db9;}.cls-11{fill:#39748e;}.cls-12{fill:#285c77;}.cls-13{fill:#77bfd8;mix-blend-mode:multiply;}.cls-14{fill:#202739;}</style>
    </defs>
    <title>man in chair</title>
    <g class="cls-1">
        <g id="Layer_2" data-name="Layer 2">
            <g id="OBJECTS">
                <path class="cls-2" d="M138.08,243.06H5.62A5.62,5.62,0,0,1,0,237.44H0a5.62,5.62,0,0,1,5.62-5.62H138.08a5.62,5.62,0,0,1,5.62,5.62h0A5.62,5.62,0,0,1,138.08,243.06Z" />
                <path class="cls-3" d="M68.86,142.63h31.72a15,15,0,0,1,1.61.09c10.79,1.12,18,11.77,15.44,22.32l-13,60.42H86l9-57.31H68.86Z" />
                <path class="cls-4" d="M86,225.46h15.57S118.13,227,118.13,238H86Z" />
                <path class="cls-3" d="M70.67,142.63H39a14.89,14.89,0,0,0-1.61.09c-10.79,1.12-18,11.77-15.44,22.32l13,60.42H53.53l-9-57.31H70.67Z" />
                <path class="cls-5" d="M97,225.46c.06-.2.12-.41.19-.61,2.16-7.12,4.19-24.14,6.21-31.29,2.16-7.66,4.18-15.36,5.67-23.18.3-1.61.56-3.22.84-4.82.11-.73.18-1.21.22-1.45.1-.84.19-1.67.28-2.51,0-.21,0-.41,0-.61H68.86v7.16H95l-9,57.31Z" />
                <path class="cls-5" d="M70.67,161H30.76c.19.81.38,1.63.59,2.44,1.76,6.9,4,13.66,6.26,20.41,2.2,6.58,4.5,13.16,6.19,19.9,1,3.95,1.75,17.79,2.74,21.72h7l-9-57.31H70.67Z" />
                <g id="_Group_" data-name="&lt;Group&gt;">
                    <g id="_Group_2" data-name="&lt;Group&gt;">
                        <g id="_Group_3" data-name="&lt;Group&gt;">
                            <g id="_Group_4" data-name="&lt;Group&gt;">
                                <path id="_Path_" data-name="&lt;Path&gt;" class="cls-6" d="M51.43,36.86s-4-6.27-8.52-2.85.28,15.81,8.55,13.81Z" />
                                <path id="_Path_2" data-name="&lt;Path&gt;" class="cls-7" d="M51.44,41v5.64c-7,.57-10.05-9.44-6.74-10.47C47.39,35.35,50.26,39,51.44,41Z" />
                                <path id="_Path_3" data-name="&lt;Path&gt;" class="cls-8" d="M43.41,38.07a.67.67,0,0,1,0-.12l.14-.33a2.29,2.29,0,0,1,.71-.9,1.3,1.3,0,0,1,.31-.16l.17-.05h0s0,0,0,0h0l.12,0a.75.75,0,0,1,.2,0h.19l.21,0,.21,0a4.72,4.72,0,0,1,1.69.74c.27.18.53.39.79.6s.5.42.73.64c.47.44.89.87,1.25,1.25L51.44,41s0-.17-.17-.46a9.82,9.82,0,0,0-.59-1.15c-.14-.23-.29-.48-.47-.73s-.38-.51-.6-.77A8.38,8.38,0,0,0,48,36.45a5.1,5.1,0,0,0-1-.53,3.64,3.64,0,0,0-1.12-.25h-.28l-.28,0-.28,0a1.49,1.49,0,0,0-.25.07l-.11,0-.06,0-.07,0-.23.12a2.33,2.33,0,0,0-.37.31,1.82,1.82,0,0,0-.41.69,2.08,2.08,0,0,0-.12.57,2.5,2.5,0,0,0,0,.37Z" />
                            </g>
                            <g id="_Group_5" data-name="&lt;Group&gt;">
                                <path id="_Path_4" data-name="&lt;Path&gt;" class="cls-6" d="M93.55,40.49s5-5.49,8.88-1.34-3,15.52-10.79,12.14Z" />
                                <path id="_Path_5" data-name="&lt;Path&gt;" class="cls-7" d="M92.83,44.59l-1,5.55c6.83,1.77,11.52-7.58,8.43-9.16C97.78,39.7,94.33,42.84,92.83,44.59Z" />
                                <path id="_Path_6" data-name="&lt;Path&gt;" class="cls-8" d="M101.25,43.06l0-.12a2.66,2.66,0,0,0-.08-.35,2.26,2.26,0,0,0-.55-1,1.39,1.39,0,0,0-.27-.21l-.15-.07,0,0h0l-.11,0-.2,0-.19,0-.2,0h-.21a4.46,4.46,0,0,0-1.79.43,9.1,9.1,0,0,0-.88.45l-.84.51c-.53.35-1,.71-1.44,1l-1.4,1.07a4,4,0,0,1,.25-.43,7.94,7.94,0,0,1,.77-1,6.87,6.87,0,0,1,.59-.64q.33-.33.72-.66A8.76,8.76,0,0,1,97,40.68a6,6,0,0,1,1.09-.35,4,4,0,0,1,1.15-.06l.28,0a3.48,3.48,0,0,1,.53.16,1.08,1.08,0,0,1,.24.11l.1,0,.06,0,.06,0,.21.15a2.1,2.1,0,0,1,.31.37,1.87,1.87,0,0,1,.29.75,2.36,2.36,0,0,1,0,.58,2,2,0,0,1-.06.37Z" />
                            </g>
                            <path id="_Path_7" data-name="&lt;Path&gt;" class="cls-6" d="M64.93,56.82l11.44,0s.47,17.92.52,17.92-.84,3.57-5.91,3.66-6.34-3.64-6.34-3.64S64.93,56.82,64.93,56.82Z" />
                            <path id="_Path_8" data-name="&lt;Path&gt;" class="cls-8" d="M64.93,56.82l11.44,0s.47,17.92.52,17.92-.84,3.57-5.91,3.66-6.34-3.64-6.34-3.64S64.93,56.82,64.93,56.82Z" />
                            <path id="_Path_9" data-name="&lt;Path&gt;" class="cls-8" d="M65.61,59.64l11.4,1s-.05,2.29-.08,4.24c0,.29-3.33.5-3.69.52A20.17,20.17,0,0,1,65,64.06C65.3,62.09,65.61,59.64,65.61,59.64Z" />
                            <path id="_Path_10" data-name="&lt;Path&gt;" class="cls-8" d="M49,31.56c1-7.9,5-15.09,13.1-17.48a33.28,33.28,0,0,1,12.77-.83c4.2.43,8.66,1.09,12.48,3,6.85,3.34,5.51,6.92,5.6,14.22,0,.71,4.47,4.59,4.43,5.3-.08,1.64-.1,3.26-.3,4.89a38,38,0,0,1-2.86,10.71,24.28,24.28,0,0,1-8.38,10.41A24.41,24.41,0,0,1,66.55,65a25.61,25.61,0,0,1-7.93-3.63,22.74,22.74,0,0,1-8.36-11.27,34.85,34.85,0,0,1-1.82-11.81A37.55,37.55,0,0,1,49,31.73C49,31.67,49,31.61,49,31.56Z" />
                            <g id="_Group_6" data-name="&lt;Group&gt;">
                                <path id="_Path_11" data-name="&lt;Path&gt;" class="cls-8" d="M48.6,31.77a58.05,58.05,0,0,1,.24-7C48.52,28.75,48.6,31.77,48.6,31.77Z" />
                            </g>
                            <path id="_Path_12" data-name="&lt;Path&gt;" class="cls-9" d="M53.14,15.57c7.17-10.77,45.53-14,48,22.25C102.87,64.26,73,67.55,58.62,61.34,34.15,50.78,46,26.34,53.14,15.57Z" />
                        </g>
                        <path id="_Path_13" data-name="&lt;Path&gt;" class="cls-9" d="M48.25,42.68s-3.4-1-5.34-8.67c-1.32-5.21.19-16.2,6.62-21.48,3.77-3.1,4.82-1.66,4.82-1.66s1-3.73,8.12-6.82c23.4-10.14,29.36.89,32.69,10C99.7,26.46,97.42,35.73,73,27.73c-9.88-3.24-16.16-4.85-16.16-4.85a20.11,20.11,0,0,1-1.9,7.74c-2,4.54-6.72,9.48-6.72,9.48" />
                    </g>
                </g>
                <path class="cls-10" d="M114.61,112.53,101,81.44C99,77,93.75,74,87.86,74H53.47c-5.89,0-11.14,3-13.1,7.43L26.72,112.53c-3.17,7.22,3.52,14.8,13.08,14.8h61.73C111.09,127.33,117.78,119.75,114.61,112.53Z" />
                <rect class="cls-11" x="37.03" y="79.5" width="67.99" height="80.37" rx="14.08" ry="14.08" />
                <rect class="cls-12" x="40.35" y="79.5" width="61.36" height="75.44" rx="14.08" ry="14.08" />
                <rect class="cls-11" x="39.34" y="30.44" width="61.36" height="39.85" rx="14.08" ry="14.08" />
                <path class="cls-12" d="M85.51,66.89h-31A11.4,11.4,0,0,1,43.17,55.45V43.21A11.4,11.4,0,0,1,54.53,31.77h31A11.41,11.41,0,0,1,96.88,43.21V55.45A11.4,11.4,0,0,1,85.51,66.89Z" />
                <ellipse class="cls-12" cx="69.69" cy="170.5" rx="39.81" ry="9.35" />
                <path class="cls-11" d="M39.31,164.46a297.31,297.31,0,0,0,30.38,1.33,297.31,297.31,0,0,0,30.38-1.33c-7.3-2-18.2-3.31-30.38-3.31S46.61,162.44,39.31,164.46Z" />
                <path class="cls-13" d="M30.65,172.33c3.62,4.29,19.72,7.53,39,7.53s35.42-3.24,39-7.53Z" />
                <path class="cls-14" d="M75.54,226.39H63.85V130.72a5.84,5.84,0,0,1,5.84-5.85h0a5.85,5.85,0,0,1,5.85,5.85Z" />
                <path class="cls-14" d="M73.8,126.29H65.58v-82a4.11,4.11,0,0,1,4.11-4.11h0a4.11,4.11,0,0,1,4.11,4.11Z" />
                <path class="cls-4" d="M53.53,225.46H38S21.39,227,21.39,238H53.53Z" />
                <path class="cls-14" d="M69.26,178.47a102.77,102.77,0,0,1-34.17-3.87c-12.83-3.79-11.21-30.3-9.12-42.88,5-.21,8.9-1.33,8.9-2.7s-4.71-2.73-10.52-2.73S13.83,127.51,13.83,129c0,1.25,3.23,2.3,7.65,2.63-1.57,9.93-5.09,41.42,12.12,46.51a109.17,109.17,0,0,0,30.17,4.27c3.54,0,5.72-.19,6-.21Z" />
                <path class="cls-14" d="M71.92,178.47a102.73,102.73,0,0,0,34.16-3.87c12.84-3.79,11.21-30.3,9.12-42.88-5-.21-8.9-1.33-8.9-2.7s4.71-2.73,10.52-2.73,10.53,1.22,10.53,2.73c0,1.25-3.24,2.3-7.65,2.63,1.56,9.93,5.09,41.42-12.13,46.51a109.12,109.12,0,0,1-30.17,4.27c-3.53,0-5.71-.19-6-.21Z" />
                <path class="cls-14" d="M76.6,233.26a6.87,6.87,0,1,1-6.87-6.87A6.86,6.86,0,0,1,76.6,233.26Z" />
                <path class="cls-14" d="M76.6,127.33a6.87,6.87,0,1,1-6.87-6.87A6.87,6.87,0,0,1,76.6,127.33Z" />
                <path class="cls-14" d="M53.91,233.26a6.87,6.87,0,1,1-6.86-6.87A6.86,6.86,0,0,1,53.91,233.26Z" />
                <path class="cls-14" d="M99.2,233.26a6.87,6.87,0,1,1-6.86-6.87A6.86,6.86,0,0,1,99.2,233.26Z" />
                <rect class="cls-14" x="48.91" y="225.46" width="41.64" height="4.81" />
            </g>
        </g>
    </g>
</svg>